<?xml version="1.0" encoding="UTF-8"?><svg id="Layer_1" xmlns="http://www.w3.org/2000/svg" viewBox="0 0 261.55 255.01"><defs><style>.cls-1{fill:#010101;}.cls-2{fill:#f2f1f0;}.cls-3{fill:#f2f2f0;}.cls-4{fill:#030303;}.cls-5{fill:#f3f1f1;}.cls-6{fill:#060606;}.cls-7{fill:#f3f1f0;}.cls-8{fill:#f3f3f1;}.cls-9{fill:#050605;}</style></defs><path class="cls-4" d="M237.26.03c3.14-.03,6.29-.02,9.44-.01.01.44.02,1.34.02,1.78-1.22.04-2.43.08-3.63.12.04,3.02.01,6.04,0,9.06-.74,0-1.48.02-2.21.03-.03-3.04,0-6.07-.01-9.1-1.19-.02-2.38-.02-3.57-.02,0-.46-.04-1.39-.04-1.86"/><path class="cls-4" d="M73.59,228.77c1.69-.02,3.44-.1,4.9.9.4,1.82,1.26,3.94-.06,5.6-1.11,1.57-3.16,1.51-4.87,1.61-.13-2.72.03-5.41.03-8.11"/><path class="cls-6" d="M248.43.17c1.3-.06,2.61-.13,3.92-.16.86,2.53,1.73,5.06,2.7,7.55,1.06-2.46,1.91-5,2.79-7.52,1.07-.01,2.13-.02,3.21-.04.04,3.66.01,7.32.01,10.98-.51,0-1.53.03-2.04.04-.04-2.86-.02-5.71-.02-8.57-1.07,2.81-2,5.67-2.96,8.52-.62,0-1.23.03-1.83.05-.91-2.64-1.74-5.3-2.8-7.87-.36,2.59-.16,5.21-.17,7.82-.92.02-1.83,0-2.74-.02-.03-3.6.05-7.2-.07-10.78"/><path class="cls-1" d="M6.36,14.05c2.41-.59,4.84.15,7.27.27,4.32.34,8.66-.09,12.98-.29,2.46-.1,4.9.42,7.37.4,6.37-.3,12.76-.61,19.14-.27,7.62.21,15.24-.71,22.85,0,6.38.54,12.75-.65,19.13-.21,11.15.54,22.34-.21,33.47.78,4.29.32,8.58-.02,12.87.2,8.05.43,16.07-.71,24.12-.69,5.94.04,11.93-.6,17.84.34,2.21.41,4.41-.12,6.58-.48,2.96-.49,5.98-.29,8.98-.22,4.89.17,9.78-.31,14.66.19,6.63.61,13.29,0,19.92-.35.86-.07,1.72.02,2.58.15-3.08,1.51-6.31,2.66-9.47,3.98-6.29,2.87-13.31,3.67-19.66,6.37-3,2.95-7.53,1.56-11.25,2.16-4.68.84-9.44.28-14.16.6-2.48.22-4.91-.54-7.39-.37-15.45.51-30.9.23-46.35.3-36.38-.04-72.77-.14-109.16-.04-.03.94-.17,1.87-.15,2.8.19,11.53-.12,23.06.18,34.59.03,1.38-.28,2.73-.56,4.07-3.66-2.19-8.12-1.73-12.19-1.35-.61-6.25.07-12.52.17-18.78.37-5.97-.42-11.93-.08-17.89.14-2.49.07-4.98-.23-7.45-.38-2.96.22-5.89.54-8.81"/><path class="cls-1" d="M246.44,17.47c5.03-1.12,9.93-2.96,15.11-3.28-1.07,3.13-3.58,5.47-4.66,8.59-1.33,3.71-2.64,7.46-4.59,10.89-1.18,2.3-3.98,2.53-5.99,3.76-1.98,1.24-4.39.82-6.58,1.2-3.6.66-6.9,2.42-10.49,3.08-2.8.54-5.66.71-8.43,1.37-9.21,2.81-18.55,5.23-27.98,7.2.12.15.35.48.47.63-7.98,2.09-16,4.03-24.03,5.92-12.48,3.63-25.46,5.39-37.79,9.57,9.47-.18,18.69-2.7,28-4.23,1.98-.39,4.11.36,5.99-.59,2.38-1.09,5-1.39,7.56-1.82,5.32-.89,10.51-3.17,15.99-2.36,7.72-2.69,15.9-3.7,24.03-4.3,4.75-.48,9.63-.45,14.19-2.11-.11-.18-.33-.53-.44-.71,1.93-.21,3.87-.38,5.79-.67,4.14-.55,8.02-2.48,12.26-2.34.03,2.34-.57,4.66-2.1,6.48-1.83,2.28-2.66,5.12-4.14,7.6-1.22,2.27-5.01,2.09-5.29,5-.25,2.63-1.62,6.06-4.63,6.33-9.77-.51-19.42,1.57-29.15,2.09-5.09.24-10.19.11-15.27.48-.9.03-1.8.26-2.42.93-.66-.8-1.41-1.53-2.12-2.28-.49.88-.98,1.77-1.43,2.68-1.59.18-3.19.33-4.76.64-4.85,1.01-9.83.93-14.75,1.06-6.4.06-12.78.79-19.19.49-1.44-.09-2.86.19-4.25.52.03.38.07,1.12.09,1.5,4.47-.22,8.89.36,13.33.71.26.23.78.7,1.04.94,2.58-.27,5.17-.84,7.78-.57,5.34.51,10.65-1.33,15.98-.4,2.92.52,5.76-.7,8.68-.39,3.05.43,6.12-.51,9.15.2,3.29.71,6.66.33,9.98.09,2.11-.26,4.06.82,6.13.96,2.06-.23,4.08-1.19,6.2-.85,4.97,1.36,9.78-1.46,14.79-1.07-.04.66-.1,1.32-.17,1.98-1.28,1.73-3.22,3.15-3.63,5.38-.47,2.24-1.11,4.44-1.99,6.57-.16-.05-.49-.15-.66-.2-1.44,3.16-3.41,6.81-7.12,7.57-2.48.01-4.93-.46-7.4-.61-2.76-.19-5.28-1.43-7.95-2-2.25-.48-4.56.1-6.82-.11-1.7-.19-3.34-.75-5.02-1.05-2.43-.44-4.9.31-7.33-.21-3.94-.88-8.05-.8-11.83-2.31-2.44.14-4.92.55-7.31-.18-3.45-1.01-7.13-.53-10.56-1.58-3.59-1.11-7.39-.87-11.07-1.46-.95-.2-1.62.73-2.42,1.07,3.19,2.08,7.12,1.83,10.62,2.98,1.77.52,2.87,2.09,4.27,3.17,3.43-1.09,6.92.2,10.41.12,3.43.61,6.74,1.87,10.26,2.1l-.32.7c4.48.58,8.99,1.07,13.38,2.14,1.75.37,3.09,1.59,4.15,2.97,4.39-1.18,8.83.19,13.12,1.09,3.01.71,6.26-.12,9.13,1.31-.26,3.5-2.98,5.95-4.69,8.81-.67,1.2-1.81,1.95-3.14,2.24.22,1.11.86,2.32.1,3.37-1.57,2.93-2.6,6.24-4.89,8.72-1.95.19-3.79-.88-5.57-1.52-3.33-1.65-6.87-2.75-10.39-3.92l.32-.77c-2.96-2.17-6.79-2.12-9.93-3.87-2.64-1.39-5.77-1.51-8.33-3.09-1.59-.95-3.38-1.4-5.17-1.8-2.51-.46-4.24-2.6-6.65-3.33-1.98-.63-4-1.14-5.94-1.88-3.71-1.42-7.86-1.58-11.4-3.44-2.23-1.93-5.25-2.33-8.05-2.8-2.5.07-5.08.31-7.33-1,3.5,12.99,6.13,26.19,9.36,39.25,1.4,5.47,2.38,11.03,3.77,16.5,1.01,4.38,2.37,8.68,3.13,13.13-.88.45-1.75.9-2.62,1.36,1.36,7.18,3.17,14.26,4.76,21.39,1.3,5.85,2.53,11.72,3.35,17.65.15-.1.46-.3.61-.4.39.89.8,1.78,1.21,2.68,30.38,0,60.76-.15,91.14.08-.22-9.5-.04-19-.2-28.5-.03-35.86-.05-71.72-.12-107.58.07-3.05-.31-6.16.31-9.17,1.93-4.72,5.9-8.23,8.14-12.78.65-1.33,1.54-2.53,2.54-3.62,1.57,4,.22,8.28.36,12.41-.3,6,1.16,11.9,1.02,17.89.22,6.68-1.72,13.43-.02,20.05.13,8.05.05,16.11.01,24.16-1.12,16.52.59,33.09-.08,49.62-.41,3.67-.57,7.36-.41,11.05.3,9.91.41,19.82.5,29.73.45,9.71-1.48,19.37-.77,29.08.14,1.46.66,2.85.99,4.27-.04.3-.11.89-.14,1.19-30.36-.25-60.72-.04-91.08-.41-7.44-.03-14.88-.4-22.31.07-7.42.44-14.87.39-22.26-.46-4.31-.41-8.6.36-12.9.46-15.84.31-31.69.25-47.53.01-4.55-.06-9.09-.39-13.62-.14-10.68.88-21.4-.12-32.1.35-.01-.77-.01-1.54-.01-2.3.07-11.31.12-22.62-.04-33.94-.14-6.8-.42-13.62.2-20.41-.09-2.87-.73-5.7-.48-8.57.52-5.52-.07-11.04.09-16.56.12-5.2-.1-10.39-.12-15.59-.04-4.74.64-9.47.38-14.22-.44-6.94-.15-13.89-.51-20.83.14-.06.43-.15.58-.21,2.52,5.27,2.42,11.19,4.14,16.68.33,1.24.64,2.49.95,3.74l.61-.52c2.46,7.52,4.39,15.21,5.53,23.04.3,2.94,1.88,5.88.79,8.83.92,3.17.45,6.47.31,9.7.05,11.16.06,22.33-.02,33.48,30.23-.25,60.47-.04,90.7-.11,4.53-.08,9.07.44,13.6.03-1.06-5.46-2.7-10.79-3.7-16.27-.56-1.86-.17-3.77-.1-5.65-.4-1.03-1.61-1.28-2.44-1.83-1.35-3.99-1.49-8.33-3.16-12.2-.86-.02-1.71-.02-2.56-.02-5.37-23.09-10.72-46.19-16.14-69.28-3.67.27-7.2,1.4-10.65,2.6-1.77,1.49-3.2,3.38-5.11,4.71-2.43,1.74-3.98,4.41-6.41,6.13-3.49,7.31-6.06,15.06-7.33,23.05.35,2.85.2,5.81,1.24,8.54.64,1.69.96,3.48.97,5.29-3.74.61-7.46,1.37-11.15,2.22-4.19,1.72-8.8,1.91-13.07,3.38-1.95.66-3.98,1.02-6.02,1.32.08,1,.09,2.01.02,3.02-4.42,1.01-8.83,2.09-13.26,3.05-.99-2.75-1.37-5.67-2.09-8.5-.72-3.24-1.86-6.44-1.8-9.8.25-2.43-1.37-4.41-1.91-6.66-1.03-4.01-1.9-8.07-2.9-12.09-1.12-4.82-2.37-9.62-3.19-14.5l-.69.4c-.72-3.69-1.72-7.31-2.59-10.96-.15-2.01-.1-4.03-.2-6.03-.65-.82-1.57-1.52-1.87-2.56-1.62-8.24-3.55-16.42-5.46-24.6-.54-1.93-1.04-3.87-1.35-5.86,4.81-.83,9.43-2.64,14.29-3.09.48,1.15.93,2.33,1.31,3.52,3.4-.82,6.82-1.52,10.34-1.52,4.92-2.71,10.59-3.22,15.96-4.5,3.66-.82,7.2-2.17,10.96-2.48,8.86-1.72,17.53-4.3,26.35-6.24.95-.3,2.15-.17,2.89-.94-.52-1.93-1.41-3.75-1.56-5.76,3.21-.66,6.43-1.29,9.62-2.03-.12-.15-.35-.45-.47-.6,5.9-1,11.65-2.68,17.47-4.01.48,2.15.83,4.32,1.29,6.47,2.8-.24,5.51-.97,8.18-1.77-.06-.17-.2-.52-.27-.69,2.9-1.06,5.97-1.14,8.97-.46.92-.88,1.88-1.84,3.21-2.01,6.23-1.16,12.05-3.9,18.36-4.69.85.36,1.6.99,2.53,1.12,1.43-.75,2.69-1.82,4.19-2.46,3.6-1.55,7.55-1.82,11.36-2.61,2.77-.57,5.29-1.97,8.06-2.59,6.5-1.41,13.07-2.57,19.62-3.76,3.24-1.04,6.53-1.92,9.92-2.32,3.97-.4,7.55-2.25,11.36-3.29,3-.83,5.99-1.7,9.05-2.3l-.46-.52c4.32-1.11,8.55-2.52,12.67-4.21,3.58-1.58,7.54-1.69,11.24-2.82M12.02,223.03c.04.43.1,1.28.14,1.71,1.75.7,2.26,2.68,2.85,4.28,1.76,6.46,4.09,12.76,5.66,19.28,1.16-.01,2.32-.01,3.48-.02,1.17-4.19,2.42-8.38,3.87-12.48,1.35,4.13,2.55,8.31,3.72,12.49,1.15-.01,2.3-.01,3.45-.01.82-3.21,2.03-6.29,2.8-9.5.18.05.54.15.72.2.77-3.08,2.01-6.01,2.64-9.12.44-1.99,1.2-4.27,3.29-5.06.08-.58.16-1.15.23-1.72-2.69,0-5.39,0-8.08,0,.06.56.11,1.13.17,1.7,1.03.15,2.08.3,3.01.82-.46,1.96-1.04,3.9-1.25,5.92-.18-.09-.54-.27-.72-.36-.96,3.58-2.09,7.12-3.31,10.63-2.02-5.35-3.71-10.86-4.76-16.48.71-.22,1.42-.42,2.14-.62.04-.4.12-1.22.17-1.62-3.03.06-6.06.06-9.1-.02,0,.43.03,1.3.04,1.74.32.09.95.29,1.26.39,1.06,2.05,1.82,4.24,2.32,6.5-1.02,3.38-2.04,6.76-3.21,10.09-1.86-5.42-3.85-10.96-4.37-16.69.45-.09,1.36-.27,1.81-.35-.02-.43-.07-1.27-.09-1.7-2.96.12-5.92.1-8.88,0M222.91,226.44c0,.67.02,1.35.05,2.04.85.11,1.72.23,2.58.36-.05,5.76.43,11.55-.22,17.28-.79.06-1.57.12-2.35.19-.02.47-.06,1.41-.08,1.88,3.25-.08,6.5-.12,9.76.03-.03-.64-.06-1.28-.07-1.91-.81-.09-1.61-.18-2.4-.27-.23-2.49-.29-4.99-.22-7.49.29.08.86.24,1.15.31,1.8,3.12,3.62,6.23,5.4,9.36,1.89.01,3.78.01,5.68.01-.01-.43-.03-1.3-.04-1.73-.83-.38-1.73-.76-2.23-1.57-1.57-2.23-2.91-4.61-4.35-6.92,1.36-.56,2.94-1.06,3.73-2.42,1.17-1.77.88-4.01.46-5.96-.7-2.06-3-3.01-5.02-3.05-3.95-.11-7.92.46-11.83-.14M50.97,226.58c-1.7,5.51-3.48,11-5.67,16.34-.64,1.32-.87,3.25-2.61,3.52,0,.44-.05,1.33-.07,1.78,2.09-.07,4.19-.07,6.29-.02-.01-.46-.04-1.4-.05-1.86-.44-.07-1.33-.2-1.77-.27.34-1.43.75-2.84,1.24-4.21,2.1.01,4.2-.02,6.31-.02.44,1.34,1.02,2.67,1.14,4.09-.43.11-1.27.31-1.69.41-.06.62-.12,1.25-.16,1.88,2.79-.07,5.58-.06,8.38-.02-.02-.43-.07-1.28-.1-1.7-.57-.43-1.42-.62-1.64-1.37-2.4-6.07-4.6-12.23-6.38-18.51-1.08-.02-2.16-.03-3.22-.04M66.53,226.6c.01.47.02,1.41.02,1.88.83.1,1.66.2,2.49.31.26,5.71.28,11.44.04,17.16-.84.13-1.67.28-2.5.45-.04.59-.07,1.19-.1,1.79,3.26-.09,6.52-.14,9.78.03-.02-.47-.06-1.41-.08-1.88l-2.37-.27c-.29-2.59-.43-5.2-.1-7.78,2.95,2.7,4.19,6.72,6.44,9.97,1.9.01,3.8,0,5.7-.01-.01-.44-.02-1.33-.04-1.77-.82-.33-1.75-.59-2.22-1.4-1.6-2.25-2.92-4.68-4.44-6.97,1.25-.61,2.71-1.05,3.55-2.24,1.41-1.94,1.22-4.6.41-6.73-1.09-2.12-3.71-2.64-5.89-2.56-3.55.09-7.12.19-10.69.02M89.64,226.6c0,.47-.01,1.4-.01,1.87,1.06.13,2.12.28,3.18.43-.09,5.74.35,11.52-.26,17.24-.98.07-1.96.13-2.93.19.01.48.03,1.43.04,1.9,3.38-.07,6.77-.15,10.15.02.01-.46.04-1.39.06-1.85-.81-.12-1.62-.25-2.42-.36-.21-2.48-.25-4.96-.27-7.44,2.43-.01,4.86-.01,7.29.02-.12,2.46.17,4.98-.35,7.41-.75.14-1.5.26-2.25.36-.02.61-.05,1.22-.07,1.84,3.22-.11,6.45-.08,9.67-.02,0-.46-.03-1.38-.04-1.84-.8-.11-1.59-.22-2.38-.32-.33-5.41-.43-10.86-.06-16.27-.08-1.27,1.57-.99,2.36-1.4.02-.41.06-1.25.08-1.66-3.22-.09-6.44.04-9.65-.14.02.48.07,1.45.1,1.93.79.1,1.59.2,2.39.31.12,2.45.17,4.89.15,7.34-2.43-.03-4.85-.02-7.28,0,.04-2.45-.11-4.94.52-7.34.71-.13,1.43-.25,2.14-.38.01-.44.01-1.31.02-1.75-3.38,0-6.78.04-10.18-.09M124.15,226.62c-1.73,6.29-4.09,12.36-6.41,18.45-.2-.04-.59-.12-.79-.16-.22.83-.75,1.34-1.59,1.53-.06.57-.12,1.16-.17,1.74,2.31-.02,4.63-.02,6.94.04-.02-.62-.03-1.24-.04-1.86-.45-.08-1.35-.25-1.81-.33.37-1.41.82-2.8,1.28-4.18,2.12-.04,4.25.01,6.37,0,.44,1.41.88,2.82,1.16,4.28-.47.04-1.41.12-1.88.17-.03.64-.06,1.28-.08,1.92,2.83-.07,5.66-.08,8.49.01.44-1.84-1.69-2.21-2.09-3.69-2.24-5.91-4.46-11.83-6.11-17.93-1.1-.01-2.19,0-3.27,0M139.72,226.58c-.03.48-.09,1.45-.11,1.93.79.1,1.59.22,2.39.34,0,5.74-.33,11.5-.93,17.21-.68.1-1.35.2-2.02.31.02.47.06,1.4.07,1.87,2.54-.12,5.08-.1,7.62-.02-.04-.65-.08-1.3-.11-1.94-.48-.05-1.44-.15-1.92-.21-.27-4.43.1-8.87.44-13.28,1.77,5.1,3.3,10.26,4.9,15.41,1.1.05,2.21.09,3.32.14,1.89-5.21,3.19-10.6,5.26-15.75.18,4.47.56,8.96.43,13.44-.76.11-1.52.22-2.27.33-.02.61-.04,1.22-.06,1.83,3.04-.01,6.09-.07,9.14.05,0-.47.04-1.41.06-1.88-.53-.08-1.59-.24-2.12-.32-.78-5.71-.98-11.5-.96-17.26.8-.11,1.61-.21,2.43-.32-.05-.63-.09-1.25-.12-1.88-2.45.03-4.9.06-7.34,0-1.55,5.29-3.17,10.56-5.14,15.72-2-5.08-3.48-10.35-4.8-15.64-2.71-.07-5.43,0-8.16-.07M170.86,226.7c0,.42-.03,1.26-.04,1.68.82.23,1.65.44,2.5.59-.17,5.41-.45,10.83-.86,16.22-.07,1.08-1.46.94-2.16,1.28,0,.44.02,1.32.03,1.76,2.33-.11,4.67-.1,7.01-.02-.02-.46-.06-1.38-.09-1.85-.69-.15-1.37-.31-2.05-.46-.07-4.39.28-8.78.47-13.16,1.99,5.05,3.32,10.34,5.02,15.49,1.13,0,2.27,0,3.4-.01,1.67-5.31,3.34-10.63,5.11-15.9.23,4.57.63,9.15.44,13.74-.75.09-1.51.17-2.25.25,0,.64.03,1.28.06,1.93,3.24-.16,6.48-.07,9.73-.04,0-.46-.02-1.38-.02-1.84-.92-.12-1.83-.19-2.73-.36-.77-5.69-.99-11.49-.94-17.24.78-.09,1.57-.17,2.37-.25,0-.48.03-1.44.03-1.92-2.5.03-4.99,0-7.49.02-1.58,5.26-3.11,10.54-5.1,15.68-2.02-5.1-3.46-10.39-4.85-15.68-2.53-.03-5.06-.03-7.59.09M200.94,228.4c.83.17,1.69.29,2.52.54.41,5.39.24,10.85.13,16.25.09,1.35-1.76.88-2.53,1.23-.05.6-.09,1.2-.13,1.81,5.55.09,11.1.02,16.65.02.3-2.04.59-4.08.9-6.12-1.04-.14-2.08-.27-3.1-.39-.47,1.37-.82,2.82-1.59,4.06-1.77.06-3.79.52-5.42-.22-.66-2.17-.14-4.66-.37-6.95,2.34-.02,4.69-.01,7.03.05,0-.95,0-1.89,0-2.83-2.35.09-4.69.07-7.02.04.08-2.3.13-4.59.09-6.89,1.93-.04,3.87-.04,5.81-.05.29,1.42.65,2.83.93,4.26.98,0,1.96.03,2.95.05.03-2.23,0-4.46-.06-6.69-5.55.09-11.09.07-16.63.02-.05.6-.11,1.2-.17,1.81"/><path class="cls-8" d="M12.02,223.03c2.96.09,5.92.11,8.88-.03.02.43.07,1.27.09,1.7-.45.09-1.36.27-1.81.35.52,5.73,2.51,11.27,4.37,16.69,1.17-3.32,2.19-6.71,3.21-10.09-.5-2.25-1.26-4.45-2.32-6.5-.31-.1-.94-.3-1.26-.39,0-.43-.03-1.3-.04-1.74,3.03.08,6.06.07,9.1.02-.04.41-.12,1.22-.17,1.62-.72.2-1.43.4-2.14.62,1.06,5.63,2.74,11.13,4.76,16.48,1.22-3.51,2.35-7.05,3.31-10.63.18.09.54.27.72.36.2-2.01.78-3.96,1.25-5.92-.93-.51-1.98-.66-3.01-.82-.06-.57-.11-1.14-.17-1.7,2.69,0,5.39.02,8.08,0-.07.57-.15,1.14-.23,1.72-2.08.79-2.84,3.08-3.29,5.06-.63,3.11-1.87,6.04-2.64,9.12-.18-.06-.54-.15-.72-.2-.77,3.21-1.99,6.29-2.8,9.5-1.15.01-2.3.01-3.45.01-1.17-4.18-2.38-8.36-3.72-12.49-1.46,4.11-2.7,8.29-3.87,12.48-1.16.01-2.32.01-3.48.02-1.56-6.52-3.9-12.82-5.66-19.28-.59-1.6-1.1-3.58-2.85-4.28-.03-.41-.1-1.26-.14-1.69"/><path class="cls-3" d="M222.91,226.44c3.91.6,7.88.02,11.82.16,2.02.04,4.32.99,5.02,3.05.42,1.95.71,4.19-.46,5.96-.79,1.36-2.37,1.86-3.73,2.42,1.44,2.31,2.78,4.69,4.35,6.92.5.81,1.4,1.19,2.23,1.57.01.43.03,1.3.04,1.73-1.9.01-3.79.01-5.68-.01-1.79-3.12-3.6-6.24-5.4-9.36-.28-.07-.86-.23-1.15-.31-.07,2.5,0,5,.22,7.49.8.09,1.59.18,2.4.27.02.63.04,1.27.07,1.91-3.25-.15-6.51-.1-9.76-.02.02-.47.06-1.41.08-1.88.78-.07,1.56-.13,2.35-.19.64-5.73.17-11.53.22-17.28-.86-.13-1.73-.25-2.58-.36-.02-.71-.03-1.39-.04-2.07M229.95,228.79c.02,2.66-.07,5.31-.07,7.97,1.82.07,4.04.02,5.13-1.7,1.09-1.7.2-3.63-.14-5.4-1.46-1.03-3.23-.91-4.92-.87"/><path class="cls-3" d="M66.53,226.6c3.56.17,7.13.06,10.7-.02,2.18-.08,4.79.44,5.89,2.56.8,2.13.99,4.79-.41,6.73-.83,1.19-2.3,1.63-3.55,2.24,1.52,2.3,2.84,4.72,4.44,6.97.46.81,1.4,1.07,2.22,1.4.01.44.03,1.32.04,1.77-1.9.01-3.8.01-5.7.01-2.25-3.25-3.5-7.27-6.44-9.97-.32,2.58-.19,5.19.1,7.78.78.09,1.57.18,2.37.27.02.47.06,1.41.08,1.88-3.25-.16-6.52-.12-9.78-.02.04-.6.07-1.2.1-1.79.83-.17,1.66-.31,2.5-.44.23-5.72.22-11.45-.04-17.16-.83-.11-1.66-.22-2.49-.32-.01-.47-.02-1.42-.03-1.89M73.59,228.77c.01,2.7-.16,5.4-.02,8.1,1.7-.1,3.76-.03,4.87-1.61,1.32-1.66.46-3.78.06-5.6-1.47-.99-3.23-.92-4.91-.89"/><path class="cls-3" d="M124.15,226.62c1.09,0,2.17,0,3.27,0,1.66,6.1,3.88,12.02,6.11,17.93.4,1.48,2.53,1.85,2.09,3.69-2.83-.09-5.66-.09-8.49-.01.02-.64.05-1.28.08-1.92.47-.04,1.41-.12,1.88-.17-.28-1.46-.72-2.87-1.16-4.28-2.12.01-4.25-.04-6.37,0-.46,1.38-.91,2.77-1.28,4.18.46.08,1.36.25,1.81.33,0,.62.02,1.24.04,1.86-2.32-.06-4.63-.06-6.94-.04.05-.58.1-1.17.17-1.74.85-.19,1.38-.7,1.59-1.53.2.04.59.12.79.16,2.32-6.09,4.68-12.17,6.41-18.45M124.76,232.88c-.84,2.22-1.63,4.45-2.42,6.69,1.58.02,3.16.02,4.74.02-.74-2.25-1.53-4.48-2.32-6.71"/><path class="cls-3" d="M170.86,226.7c2.53-.12,5.06-.12,7.59-.09,1.39,5.29,2.83,10.59,4.85,15.68,1.98-5.13,3.51-10.41,5.1-15.68,2.5,0,4.99,0,7.49-.02,0,.48-.02,1.45-.03,1.92-.8.08-1.58.17-2.37.25-.05,5.75.17,11.55.94,17.24.9.18,1.81.25,2.73.36,0,.46.02,1.38.02,1.84-3.25-.03-6.49-.12-9.73.04-.02-.65-.04-1.29-.06-1.93.74-.09,1.49-.17,2.25-.25.19-4.58-.21-9.17-.44-13.74-1.77,5.27-3.43,10.59-5.11,15.9-1.14.01-2.27.01-3.4.01-1.7-5.15-3.03-10.44-5.02-15.49-.19,4.39-.54,8.77-.47,13.16.68.15,1.36.31,2.05.46.02.46.06,1.38.09,1.85-2.34-.08-4.68-.09-7.01.02,0-.44-.02-1.32-.03-1.76.7-.34,2.09-.2,2.16-1.28.41-5.4.69-10.81.86-16.22-.85-.15-1.68-.36-2.5-.59,0-.42.03-1.26.04-1.68"/><path class="cls-2" d="M50.97,226.58c1.06,0,2.14.02,3.21.04,1.78,6.28,3.98,12.44,6.38,18.51.22.75,1.07.94,1.64,1.37.02.43.07,1.28.1,1.7-2.79-.04-5.58-.05-8.37.02.04-.63.1-1.26.16-1.88.42-.1,1.27-.3,1.69-.41-.12-1.43-.69-2.75-1.14-4.09-2.11,0-4.21.02-6.31.02-.48,1.38-.9,2.79-1.24,4.21.44.07,1.33.2,1.77.27.01.47.04,1.4.05,1.86-2.1-.05-4.19-.05-6.29.02.02-.44.06-1.33.07-1.78,1.74-.27,1.96-2.21,2.61-3.52,2.19-5.34,3.97-10.83,5.67-16.34M49.13,239.58c1.58.01,3.16.01,4.75,0-.78-2.25-1.6-4.49-2.33-6.75-.83,2.24-1.67,4.48-2.42,6.75"/><path class="cls-2" d="M139.72,226.58c2.72.06,5.45,0,8.17.07,1.32,5.29,2.8,10.56,4.8,15.64,1.96-5.16,3.59-10.43,5.14-15.72,2.45.07,4.89.04,7.34,0,.04.62.07,1.25.12,1.88-.82.1-1.62.2-2.43.31-.03,5.76.17,11.55.96,17.26.53.08,1.59.24,2.12.32-.02.47-.05,1.41-.06,1.88-3.05-.12-6.1-.06-9.14-.05,0-.62.03-1.23.06-1.83.75-.11,1.51-.22,2.27-.33.13-4.48-.25-8.97-.43-13.44-2.06,5.14-3.37,10.54-5.26,15.75-1.11-.04-2.22-.09-3.32-.14-1.61-5.14-3.14-10.31-4.9-15.41-.35,4.42-.71,8.86-.44,13.28.48.06,1.44.16,1.92.21.03.64.07,1.29.11,1.94-2.54-.08-5.08-.1-7.62.02-.02-.47-.06-1.4-.07-1.87.67-.1,1.34-.21,2.02-.31.6-5.71.92-11.47.93-17.21-.8-.12-1.6-.23-2.39-.34.02-.47.07-1.44.1-1.92"/><path class="cls-5" d="M89.64,226.6c3.4.12,6.81.08,10.21.1-.01.44-.01,1.31-.02,1.75-.72.12-1.43.25-2.14.38-.63,2.4-.48,4.89-.52,7.34,2.42-.02,4.85-.02,7.28,0,.02-2.45-.03-4.9-.15-7.34-.8-.11-1.6-.21-2.39-.31-.03-.48-.07-1.45-.1-1.93,3.21.19,6.43.05,9.65.14-.02.41-.06,1.25-.08,1.66-.79.41-2.44.12-2.36,1.4-.37,5.4-.27,10.86.06,16.27.79.11,1.58.21,2.38.32,0,.46.03,1.38.04,1.84-3.22-.06-6.45-.09-9.67.02.02-.62.04-1.23.07-1.84.75-.1,1.49-.22,2.25-.36.52-2.43.23-4.95.35-7.41-2.43-.03-4.87-.02-7.29-.02.02,2.48.06,4.97.27,7.44.8.11,1.61.24,2.42.36-.01.46-.04,1.39-.06,1.85-3.38-.17-6.77-.09-10.15-.02-.01-.48-.03-1.43-.04-1.9.97-.06,1.95-.12,2.93-.19.61-5.73.17-11.5.26-17.24-1.06-.14-2.12-.3-3.18-.43-.03-.47-.02-1.41-.02-1.88"/><path class="cls-7" d="M200.94,228.4c.06-.61.12-1.21.19-1.82,5.54.05,11.08.07,16.63-.02.07,2.23.09,4.46.06,6.69-.99-.02-1.97-.04-2.95-.05-.28-1.43-.64-2.83-.93-4.26-1.94,0-3.88,0-5.81.05.04,2.3,0,4.6-.09,6.89,2.33.03,4.68.04,7.02-.04,0,.94,0,1.88,0,2.83-2.34-.06-4.69-.07-7.03-.05.23,2.29-.29,4.78.37,6.95,1.63.73,3.64.27,5.42.22.77-1.24,1.12-2.69,1.59-4.06,1.03.12,2.06.25,3.1.39-.3,2.04-.6,4.08-.9,6.12-5.55,0-11.1.06-16.65-.02.04-.61.08-1.21.13-1.81.77-.35,2.62.12,2.53-1.23.11-5.4.28-10.86-.13-16.25-.85-.24-1.71-.37-2.54-.53"/><path class="cls-9" d="M229.95,228.79c1.69-.04,3.46-.16,4.93.87.33,1.77,1.22,3.71.14,5.4-1.09,1.72-3.32,1.77-5.13,1.7,0-2.66.08-5.31.06-7.97"/><path class="cls-9" d="M124.76,232.88c.79,2.23,1.59,4.46,2.32,6.71-1.59,0-3.17,0-4.74-.02.79-2.24,1.58-4.47,2.42-6.69"/><path class="cls-9" d="M49.13,239.58c.75-2.27,1.59-4.51,2.41-6.75.74,2.26,1.55,4.5,2.33,6.75-1.58.01-3.16.01-4.74,0"/></svg>