<svg width="33" height="26" viewBox="0 0 33 26" fill="none" xmlns="http://www.w3.org/2000/svg">
<g clip-path="url(#clip0_68_160)">
<path fill-rule="evenodd" clip-rule="evenodd" d="M31.7085 19.7622C31.0867 20.5503 29.5634 21.1126 29.5634 21.1126L18.2311 25.2024V22.1863L26.5709 19.2006C27.5173 18.8599 27.6626 18.3783 26.8933 18.1255C26.1255 17.872 24.7352 17.9446 23.7881 18.2868L18.2311 20.2532V17.123L18.5514 17.0141C18.5514 17.0141 20.1572 16.4431 22.4151 16.1917C24.673 15.9418 27.4378 16.2259 29.6082 17.0526C32.0541 17.8291 32.3296 18.974 31.7085 19.7622ZM19.3098 14.6263V6.91295C19.3098 6.00708 19.1435 5.17313 18.2976 4.93704C17.6498 4.72855 17.2478 5.33295 17.2478 6.23809V25.554L12.0632 23.9007V0.86972C14.2676 1.28088 17.4792 2.25286 19.2057 2.83764C23.5965 4.35226 25.0851 6.23736 25.0851 10.4848C25.0851 14.6248 22.5416 16.1939 19.3098 14.6263ZM2.55001 21.871C0.0390367 21.1606 -0.378856 19.6801 0.765649 18.8272C1.8234 18.0398 3.62221 17.447 3.62221 17.447L11.0561 14.7912V17.8189L5.70662 19.7425C4.76166 20.0832 4.61634 20.5656 5.38416 20.8184C6.15271 21.0712 7.54375 20.9993 8.49016 20.6579L11.0561 19.7222V22.4311C10.8934 22.4601 10.7119 22.4892 10.5442 22.5175C7.97755 22.9389 5.2439 22.7631 2.55001 21.871ZM30.0572 23.0704C30.3818 23.0704 30.6862 23.1968 30.9154 23.4299C31.1446 23.6595 31.2711 23.9661 31.2711 24.2915C31.2711 24.6184 31.1446 24.9235 30.9154 25.153C30.6862 25.3848 30.3818 25.5112 30.0572 25.5112C29.7326 25.5112 29.4289 25.3848 29.199 25.153C28.9698 24.9235 28.844 24.6184 28.844 24.2915C28.844 23.6188 29.3877 23.0704 30.0572 23.0704ZM29.0479 24.2915C29.0479 24.5625 29.1527 24.8174 29.3436 25.0078C29.5337 25.201 29.7882 25.3056 30.0572 25.3056C30.6146 25.3056 31.0665 24.8509 31.0665 24.2915C31.0665 24.0198 30.9624 23.7648 30.7708 23.5738C30.5806 23.3805 30.3261 23.2767 30.0572 23.2767C29.7882 23.2767 29.5337 23.3805 29.3436 23.5738C29.1527 23.7648 29.0479 24.0198 29.0479 24.2915ZM30.4237 23.6341C30.5568 23.6929 30.624 23.8062 30.624 23.9675C30.624 24.0503 30.6067 24.1201 30.5712 24.1745C30.5459 24.2138 30.5098 24.2457 30.4693 24.2733C30.5011 24.2922 30.5293 24.3147 30.5503 24.3409C30.5792 24.3787 30.5958 24.439 30.598 24.521L30.6045 24.6947C30.6067 24.7412 30.6096 24.7768 30.6168 24.7985C30.624 24.8305 30.6378 24.8509 30.6551 24.8574L30.6732 24.8661V24.8857V24.9155V24.9453H30.6435H30.4288H30.4115L30.4028 24.93C30.3955 24.9155 30.3905 24.8988 30.3854 24.877C30.3818 24.8574 30.3782 24.8233 30.376 24.771L30.3652 24.5552C30.3623 24.4804 30.337 24.4339 30.2893 24.4092C30.2596 24.3954 30.2105 24.3889 30.1439 24.3889H29.7759V24.9155V24.9453H29.7456H29.5706H29.541V24.9155V23.6174V23.5876H29.5706H30.1685C30.2712 23.5876 30.3572 23.6028 30.4237 23.6341ZM29.7759 24.1811H30.1504C30.2256 24.1811 30.2856 24.1673 30.3283 24.1389C30.3673 24.1106 30.3861 24.059 30.3861 23.9842C30.3861 23.9029 30.3594 23.8498 30.303 23.8215C30.2719 23.8062 30.2285 23.7975 30.1736 23.7975H29.7759V24.1811Z" fill="white"/>
</g>
<defs>
<clipPath id="clip0_68_160">
<rect width="32.1523" height="25.0074" fill="white" transform="translate(0 0.708206)"/>
</clipPath>
</defs>
</svg>
