<svg width="27" height="27" viewBox="0 0 27 27" fill="none" xmlns="http://www.w3.org/2000/svg">
<g clip-path="url(#clip0_68_162)">
<path d="M13.2637 0.398071C20.3405 0.398071 26.077 6.13487 26.0772 13.2115C26.0772 20.2884 20.3406 26.026 13.2637 26.026C7.48899 26.026 2.60643 22.2022 1.00592 16.9508L5.85553 18.9518C6.09587 20.0438 6.84857 21.001 7.95416 21.4615C8.82428 21.8231 9.80273 21.8245 10.6739 21.4655C11.5448 21.1064 12.2379 20.4169 12.6006 19.5475C12.7941 19.0844 12.8879 18.5853 12.8751 18.0836L17.3565 14.8776L17.4669 14.8795C20.1517 14.8795 22.334 12.691 22.334 10.0026C22.334 7.3141 20.1557 5.13323 17.4669 5.12756C14.7832 5.12756 12.5997 7.31406 12.5997 10.0026H12.6036L12.6046 10.066L9.46979 14.6207C8.96217 14.5975 8.45242 14.6865 7.96881 14.8854C7.75824 14.971 7.55646 15.0783 7.36823 15.2057L0.483459 12.3678C0.483459 12.3678 0.482582 12.369 0.482483 12.3707C0.480627 12.3676 0.479461 12.3641 0.4776 12.361C0.916472 5.68138 6.47323 0.398103 13.2637 0.398071ZM8.34967 15.611C8.98137 15.3709 9.69946 15.3633 10.3712 15.6422C11.0518 15.9237 11.5729 16.4536 11.8516 17.1315C12.1303 17.8093 12.1287 18.557 11.8477 19.2321L11.7296 19.486C11.0683 20.7112 9.57479 21.257 8.26569 20.7115C7.64606 20.4511 7.14381 19.9716 6.85455 19.3649L8.43854 20.0221C8.6832 20.1239 8.94599 20.1769 9.211 20.1774C9.47613 20.1778 9.73934 20.1252 9.98444 20.024C10.2294 19.9229 10.4521 19.7747 10.6397 19.5875C10.8274 19.4003 10.9765 19.178 11.0782 18.9332C11.2842 18.4385 11.2859 17.882 11.0821 17.3864C10.8782 16.8908 10.4857 16.4963 9.99127 16.2897L8.34967 15.611ZM17.4708 6.75549C18.3311 6.75761 19.1558 7.10083 19.7637 7.70959C20.3716 8.31835 20.714 9.14325 20.7149 10.0035C20.7141 10.8639 20.3716 11.6886 19.7637 12.2975C19.1558 12.9064 18.3312 13.2495 17.4708 13.2516C16.6106 13.2492 15.7865 12.9063 15.1788 12.2975C14.571 11.6886 14.2294 10.8638 14.2286 10.0035C14.2295 9.1434 14.5711 8.31833 15.1788 7.70959C15.7864 7.10094 16.6107 6.75793 17.4708 6.75549ZM17.4756 7.55725C16.8293 7.55839 16.2094 7.81647 15.753 8.27405C15.2968 8.73158 15.0406 9.35156 15.0411 9.99768C15.0408 10.644 15.2974 11.2648 15.754 11.7223C16.2104 12.1794 16.8296 12.4371 17.4756 12.4381C18.1222 12.4375 18.7424 12.1798 19.1993 11.7223C19.6561 11.2648 19.9125 10.6442 19.9122 9.99768C19.912 8.65039 18.819 7.55725 17.4756 7.55725Z" fill="#F0F0F0"/>
</g>
<defs>
<clipPath id="clip0_68_162">
<rect width="26.0281" height="26.0281" fill="white" transform="translate(0.257935 0.197861)"/>
</clipPath>
</defs>
</svg>
