<svg width="28" height="28" viewBox="0 0 28 28" fill="none" xmlns="http://www.w3.org/2000/svg">
<g clip-path="url(#clip0_68_166)">
<path d="M6.19518 0.777327C3.4949 1.26012 1.32232 3.25867 0.637421 5.88598C0.39041 6.83473 0.373568 7.3905 0.401637 14.7503C0.418479 21.5095 0.424093 21.6667 0.536371 22.1887C1.15951 25.0013 3.15806 27.0055 5.9987 27.6679C6.36921 27.7521 6.84078 27.769 9.8779 27.7858C13.0217 27.8083 13.3473 27.8026 13.4315 27.7184C13.5157 27.6342 13.5213 26.5507 13.5213 14.2675C13.5213 5.16178 13.5045 0.872763 13.4652 0.794168C13.409 0.693117 13.3136 0.687504 10.0239 0.693117C7.35165 0.698732 6.54886 0.715574 6.19518 0.777327ZM11.2758 14.2507V25.6245L8.9909 25.5964C6.88569 25.5739 6.66114 25.5627 6.24009 25.456C4.43242 24.9901 3.0907 23.5978 2.71456 21.7845C2.59106 21.2175 2.59106 7.25015 2.70895 6.69438C3.04578 5.11687 4.14049 3.80883 5.61695 3.21937C6.35799 2.92184 6.70043 2.88815 9.10318 2.88254L11.2758 2.87692V14.2507Z" fill="#F0F0F0"/>
<path d="M6.67797 6.30701C6.3243 6.37438 5.78536 6.64385 5.49905 6.89647C4.9096 7.40734 4.61767 8.13153 4.66258 8.98485C4.68504 9.42834 4.71311 9.54624 4.89275 9.90553C5.15661 10.4501 5.55519 10.8487 6.09974 11.1181C6.47587 11.3034 6.57131 11.3258 7.05972 11.3427C7.50322 11.3595 7.66041 11.3427 7.95794 11.2416C9.17616 10.8318 9.91158 9.64729 9.70387 8.43468C9.46247 6.99191 8.09268 6.02632 6.67797 6.30701Z" fill="#F0F0F0"/>
<path d="M16.2553 0.726793C16.2328 0.743635 16.216 6.8291 16.216 14.2507C16.216 26.4946 16.2216 27.7353 16.3058 27.7689C16.4574 27.8251 20.8138 27.8026 21.3527 27.7465C23.632 27.4883 25.6417 26.1016 26.7365 24.0413C26.8768 23.7775 27.0621 23.334 27.1575 23.0589C27.5112 22.0035 27.4999 22.2842 27.4999 14.217C27.4999 7.77785 27.4887 6.81787 27.4101 6.40806C26.8543 3.48322 24.6256 1.27696 21.6952 0.771706C21.3022 0.704338 20.6959 0.687496 18.7423 0.687496C17.3949 0.687496 16.2721 0.704338 16.2553 0.726793ZM22.2509 12.9539C23.1267 13.184 23.8453 13.8521 24.1372 14.7054C24.3225 15.2331 24.3169 16.0078 24.1316 16.4906C23.7892 17.3776 23.1155 18.0008 22.2509 18.2309C20.8475 18.5958 19.3542 17.7481 18.9444 16.3559C18.8209 15.9292 18.8265 15.2107 18.9668 14.7728C19.3879 13.3974 20.8475 12.589 22.2509 12.9539Z" fill="#F0F0F0"/>
</g>
<defs>
<clipPath id="clip0_68_166">
<rect width="27.0488" height="27.0488" fill="white" transform="translate(0.391602 0.6875)"/>
</clipPath>
</defs>
</svg>
