<svg width="28" height="28" viewBox="0 0 28 28" fill="none" xmlns="http://www.w3.org/2000/svg">
<g clip-path="url(#clip0_68_171)">
<path d="M12.492 27.4265C10.4477 27.2309 8.37809 26.4971 6.60018 25.3378C5.11034 24.3663 4.7739 23.9669 4.7739 23.1699C4.7739 21.569 6.53511 18.765 9.54842 15.5685C11.2598 13.7531 13.6436 11.6252 13.9014 11.6828C14.4025 11.7948 18.4092 15.701 19.9091 17.5398C22.281 20.4475 23.3715 22.8283 22.8175 23.8897C22.3964 24.6966 19.7834 26.2736 17.8637 26.8794C16.2815 27.3787 14.2037 27.5904 12.492 27.4265ZM2.76171 21.5054C1.52368 19.6072 0.898195 17.7384 0.596204 15.0354C0.496486 14.1429 0.53222 13.6324 0.822638 11.8005C1.1846 9.5173 2.48557 6.87592 4.0488 5.25036C4.71459 4.55802 4.77405 4.54115 5.58561 4.8144C6.57114 5.14622 7.62362 5.8727 9.25586 7.34781L10.2082 8.20848L9.68815 8.84701C7.27409 11.8111 4.72569 16.0126 3.76528 18.6119C3.24316 20.025 3.03257 21.4435 3.25723 22.0341C3.4089 22.4328 3.26958 22.2841 2.76171 21.5054ZM24.4928 21.8283C24.6151 21.2316 24.4604 20.1357 24.0979 19.0304C23.3128 16.6366 20.6884 12.1834 18.2786 9.15568L17.5199 8.20255L18.3407 7.44936C19.4123 6.46591 20.1563 5.87703 20.9591 5.37695C21.5926 4.98232 22.4979 4.63298 22.887 4.63298C23.127 4.63298 23.9716 5.50902 24.6534 6.46506C25.7094 7.94578 26.4863 9.74073 26.8799 11.6093C27.1342 12.8166 27.1554 15.401 26.9209 16.6053C26.7284 17.5937 26.322 18.8758 25.9255 19.7453C25.6284 20.3968 24.8896 21.6621 24.5658 22.0739C24.3993 22.2855 24.3992 22.2851 24.4928 21.8283ZM12.7108 4.18096C11.5989 3.61663 9.88362 3.01085 8.93607 2.84787C8.60389 2.79074 8.03723 2.75887 7.67683 2.77706C6.89503 2.81652 6.92995 2.77566 8.18411 2.18345C9.2268 1.6911 10.0965 1.40158 11.2772 1.1538C12.6054 0.875074 15.1019 0.871803 16.409 1.14708C17.8207 1.4444 19.483 2.06268 20.4198 2.63881L20.6982 2.81004L20.0594 2.77781C18.7901 2.71374 16.9403 3.22626 14.9542 4.19226C14.3551 4.48362 13.834 4.71633 13.7961 4.70939C13.7581 4.70244 13.2698 4.46465 12.7108 4.18096Z" fill="#F0F0F0"/>
</g>
<defs>
<clipPath id="clip0_68_171">
<rect width="26.5384" height="26.5384" fill="white" transform="translate(0.54599 0.942673)"/>
</clipPath>
</defs>
</svg>
